<?xml version="1.0" encoding="utf-8"?>
<!-- Generator: Adobe Illustrator 22.0.0, SVG Export Plug-In . SVG Version: 6.00 Build 0)  -->
<svg version="1.1" id="Layer_1" xmlns="http://www.w3.org/2000/svg" xmlns:xlink="http://www.w3.org/1999/xlink" x="0px" y="0px"
	 viewBox="0 0 13.6 13.6" style="enable-background:new 0 0 13.6 13.6;" xml:space="preserve">
<path d="M8.7,6.8l4.5-4.5c0.5-0.5,0.5-1.4,0-1.9s-1.4-0.5-1.9,0L6.8,4.9L2.3,0.4c-0.5-0.5-1.4-0.5-1.9,0s-0.5,1.4,0,1.9l4.5,4.5
	l-4.5,4.5c-0.5,0.5-0.5,1.4,0,1.9c0.3,0.3,0.6,0.4,0.9,0.4s0.7-0.1,0.9-0.4l4.5-4.5l4.5,4.5c0.3,0.3,0.6,0.4,0.9,0.4
	s0.7-0.1,0.9-0.4c0.5-0.5,0.5-1.4,0-1.9L8.7,6.8z"/>
</svg>
