<svg id="Group_155" data-name="Group 155" xmlns="http://www.w3.org/2000/svg" width="45.582" height="51.882" viewBox="0 0 45.582 51.882">
  <path id="Path_54" data-name="Path 54" d="M83.887,0a4.625,4.625,0,0,0-4.612,4.612V47.27a4.625,4.625,0,0,0,4.612,4.612h21.444a4.625,4.625,0,0,0,4.612-4.612V4.612A4.625,4.625,0,0,0,105.331,0Zm8.152,4.442h5.142c.338,0,.612.387.612.865s-.274.865-.612.865H92.039c-.338,0-.612-.387-.612-.865S91.7,4.442,92.039,4.442Zm-10.23,6.166h25.6V41.275h-25.6Zm12.8,33.116h0a2.855,2.855,0,0,1,2.855,2.855h0a2.855,2.855,0,0,1-2.855,2.855h0a2.855,2.855,0,0,1-2.855-2.855h0a2.855,2.855,0,0,1,2.855-2.855Z" transform="translate(-79.275)" fill="#1b1464"/>
  <path id="Path_55" data-name="Path 55" d="M125.544,21.024H97.917a2.394,2.394,0,0,0-2.383,2.391V38.939a2.389,2.389,0,0,0,2.383,2.391h27.627a2.4,2.4,0,0,0,2.391-2.391V23.415A2.4,2.4,0,0,0,125.544,21.024ZM104.711,37.188a.363.363,0,0,1-.365.365h-4.84a.37.37,0,0,1-.373-.365v-.73a.37.37,0,0,1,.373-.365h4.84a.363.363,0,0,1,.365.365Zm6.753,0a.37.37,0,0,1-.373.365h-4.84a.363.363,0,0,1-.365-.365v-.73a.363.363,0,0,1,.365-.365h4.84a.37.37,0,0,1,.373.365Zm6.745,0a.363.363,0,0,1-.365.365H113a.369.369,0,0,1-.365-.365v-.73a.369.369,0,0,1,.365-.365h4.848a.363.363,0,0,1,.365.365Zm6.745,0a.363.363,0,0,1-.365.365h-4.84a.363.363,0,0,1-.365-.365v-.738a.368.368,0,0,1,.365-.365h4.84a.369.369,0,0,1,.365.365Zm.008-9.209a.369.369,0,0,1-.365.365h-7.069a.369.369,0,0,1-.365-.365V24.818a.37.37,0,0,1,.365-.373H124.6a.365.365,0,0,1,.365.373Z" transform="translate(-82.354 -3.981)" fill="#1b1464" fill-rule="evenodd"/>
</svg>
