<svg xmlns="http://www.w3.org/2000/svg" width="14" height="14" viewBox="0 0 14 14">
  <path id="facebook_1_" data-name="facebook (1)" d="M12.115,0H1.889A1.887,1.887,0,0,0,0,1.887V12.113A1.887,1.887,0,0,0,1.889,14H6.932l.009-5h-1.3a.307.307,0,0,1-.307-.305L5.328,7.079a.307.307,0,0,1,.307-.308h1.3V5.213A2.546,2.546,0,0,1,9.65,2.42h1.324a.307.307,0,0,1,.307.307v1.36a.307.307,0,0,1-.307.307h-.812c-.877,0-1.047.417-1.047,1.029V6.771h1.928a.307.307,0,0,1,.3.343l-.191,1.613a.307.307,0,0,1-.3.271H9.123l-.009,5h3A1.887,1.887,0,0,0,14,12.114V1.887A1.887,1.887,0,0,0,12.115,0Z" transform="translate(-0.002)" fill="#fff"/>
</svg>
