<?xml version="1.0" encoding="utf-8"?>
<!-- Generator: Adobe Illustrator 22.0.0, SVG Export Plug-In . SVG Version: 6.00 Build 0)  -->
<svg version="1.1" id="Layer_1" xmlns="http://www.w3.org/2000/svg" xmlns:xlink="http://www.w3.org/1999/xlink" x="0px" y="0px"
	 viewBox="0 0 36.5 62.2" style="enable-background:new 0 0 36.5 62.2;" xml:space="preserve">
<g id="foam-hand" transform="translate(-106)">
	<path id="Path_4612" d="M115.1,2.7c0-1.5-1.2-2.7-2.7-2.7c-1.5,0-2.7,1.2-2.7,2.7v21h5.5V2.7z"/>
	<path id="Path_4613" d="M130.6,31c1.5,0,2.7-1.2,2.7-2.7l0,0V17.3c0-1.5-1.2-2.7-2.7-2.7s-2.7,1.2-2.7,2.7c0,0,0,0,0,0v10.9
		C127.9,29.8,129.1,31,130.6,31z"/>
	<path id="Path_4614" d="M135.2,32.7c-2.4,2.5-6.4,2.6-8.9,0.2c-0.2-0.2-0.4-0.5-0.6-0.7c-2.1,2.7-5.2,4.3-8.6,4.3h-1.8
		c-1,0-1.8-0.8-1.8-1.8c0-1,0.8-1.8,1.8-1.8h1.8c3.3,0,6.2-2.2,7.1-5.5h-16.2c-1,0-1.8,0.8-1.8,1.8v5c0,5.1,1.6,10.4,5.3,13.9
		c1.3,1.2,2,2.8,2,4.5v7.8c0,1,0.8,1.8,1.8,1.8H137c1,0,1.8-0.8,1.8-1.8v-7.1c0-2.5,0.6-4.9,1.7-7.1c1.3-2.6,1.9-5.5,1.9-8.3V34
		C140,35.2,137.1,34.7,135.2,32.7L135.2,32.7z M129.7,54.7h-7.3c-1,0-1.8-0.8-1.8-1.8c0-1,0.8-1.8,1.8-1.8h1.8v-6.2l-1,0.5
		c-0.9,0.5-2,0.1-2.4-0.8s-0.1-2,0.8-2.4l3.6-1.8c0.9-0.5,2-0.1,2.4,0.8c0.1,0.3,0.2,0.5,0.2,0.8V51h1.8c1,0,1.8,0.8,1.8,1.8
		C131.5,53.9,130.7,54.7,129.7,54.7L129.7,54.7z"/>
	<path id="Path_4615" d="M139.7,18.2c-1.5,0-2.7,1.2-2.7,2.7l0,0v7.3c0,1.5,1.2,2.7,2.7,2.7c1.5,0,2.7-1.2,2.7-2.7c0,0,0,0,0,0V21
		C142.5,19.5,141.2,18.2,139.7,18.2z"/>
	<path id="Path_4616" d="M124.2,13.7c0-1.5-1.2-2.7-2.7-2.7c-1.5,0-2.7,1.2-2.7,2.7v10h5.5V13.7z"/>
</g>
</svg>
