<svg id="Group_430" data-name="Group 430" xmlns="http://www.w3.org/2000/svg" width="124.144" height="78.314" viewBox="0 0 124.144 78.314">
  <g id="Group_403" data-name="Group 403">
    <path id="Path_287" data-name="Path 287" d="M22.926,25.511h44.89a1.357,1.357,0,0,0,1.222-.778c1.36-2.875,2.582-5.846,1.275-7.777C69.06,15.088,66,14.324,59.75,14.324c-3.978,0-9.007.317-14.32.654-6.6.417-14.083.891-21.441.891a1.352,1.352,0,0,0-1.178.681c-.116.2-1.145,2.13-1.272,6.72a7.088,7.088,0,0,0,.039,1.035A1.358,1.358,0,0,0,22.926,25.511Z" transform="translate(37.874 2.278)" fill="#fff"/>
    <path id="Path_288" data-name="Path 288" d="M119.858,55.207l.811-.281a1.366,1.366,0,0,0,.88-1.012l.852-4.144a1.353,1.353,0,0,0-.425-1.286l-4.5-4.019a1.361,1.361,0,0,0-.875-.345l-5.479-.11c-1.092-.935-4.293-3.683-5.735-4.888a1.351,1.351,0,0,0-.869-.314H63.043a1.357,1.357,0,0,0-1.277,1.81,10.217,10.217,0,0,0,2.019,2.949A44.23,44.23,0,0,1,67.9,49.118,6.231,6.231,0,0,1,68.56,54.9a11.189,11.189,0,0,1-6.34,5.959,28.432,28.432,0,0,1-6.952.692,48.673,48.673,0,0,1-13.131-1.782c-7.388-2.138-8.795-18.74-8.009-21.612.436-1.6,2.378-6.922,4.257-12.064.53-1.454.988-2.7,1.39-3.813.331.232.571.389.588.4a1.356,1.356,0,0,0,1.454-2.29c-.006,0-.494-.317-1.081-.77.284-.8.524-1.473.723-2.041l.072.014a1.334,1.334,0,0,0,.943.9c1.964.48,3.8,1.139,3.818,1.148a1.343,1.343,0,0,0,.461.083,1.357,1.357,0,0,0,.463-2.632c-.08-.028-1.984-.715-4.1-1.23a1.318,1.318,0,0,0-1.181.3,6.872,6.872,0,0,0,.444-1.749c0-2.53-9.443-6.011-12.384-6.113a2.793,2.793,0,0,0-2.2,1.043c-2.116,2.524-.985,9.633-.737,11.035a1.353,1.353,0,0,0,1.17,1.109l3.556.439a156.491,156.491,0,0,1-7.625,17.344c-.268.386-2.052.7-2.91.855-1.835.326-3.57.632-4.229,1.95a10.947,10.947,0,0,0-.53,4.9c-.2-.006-.4-.041-.607-.041A17.694,17.694,0,0,0,.621,55.756a3.7,3.7,0,0,0-.348,3.426,6.955,6.955,0,0,0,3.184,2.949,15.083,15.083,0,1,0,26.873,9.4c0-.4-.03-.806-.061-1.208,1.352.5,3.112,1.321,3.606,1.581a.644.644,0,0,0,.988-.433,18.478,18.478,0,0,0,.3-2.29c4.008,3.258,8.309,3.49,14.64,3.49H84.784a16.54,16.54,0,0,0,32.876-2.6c0-.488-.033-.968-.072-1.44,4.806-.679,5.589-1.476,5.964-1.865a1.942,1.942,0,0,0,.59-1.459C124.035,62.3,121.362,57.615,119.858,55.207ZM23.546,71.525a8.3,8.3,0,1,1-13.167-6.7c2.494.742,5.231,1.432,8.042,2.127,1.448.359,2.91.728,4.342,1.1A8.29,8.29,0,0,1,23.546,71.525Zm87.324-1.468a9.767,9.767,0,1,1-19.534,0c7.148-.052,14.88-.494,19.454-.789C110.812,69.533,110.87,69.792,110.87,70.057Z" transform="translate(0 -8.306)" fill="#fff"/>
  </g>
</svg>
