<svg id="Layer_1" data-name="Layer 1" xmlns="http://www.w3.org/2000/svg" viewBox="0 0 63.37 56.19"><defs><style>.cls-1{fill:#1b1464;}</style></defs><title>sport fans_Plan 2</title><path class="cls-1" d="M63.27,9.27,61.34,6.33a.62.62,0,0,1,0-.62l1.72-2.78a.6.6,0,0,0,.08-.29A.57.57,0,0,0,62.59,2h0l-9.25-.46a.59.59,0,0,0-.61.58v.47a113.25,113.25,0,0,1-15.19.23L25.3,2.2S19,2,14.61,2.1V.57A.59.59,0,0,0,14,0L.79.47A.6.6,0,0,0,.5.55a.6.6,0,0,0-.19.82L2,4.15a.56.56,0,0,1,0,.63L.1,7.71A.51.51,0,0,0,0,8a.58.58,0,0,0,.57.59h0l3.69.05a5.76,5.76,0,0,1,11.06,2.84,7.19,7.19,0,0,1-.14.76,112,112,0,0,1,15.22-.17l9.41.52c2.91.18,5.87.21,8.79.13a5.93,5.93,0,0,1-.32-1.91,5.76,5.76,0,0,1,4.45-5.58V5.1h1.31a5.74,5.74,0,0,1,5.75,5.19l3-.1a.68.68,0,0,0,.32-.11A.59.59,0,0,0,63.27,9.27ZM21,6.71l-.72.72.17,1a.22.22,0,0,1,0,.16.25.25,0,0,1-.33.12l-.9-.47-.9.47a.25.25,0,0,1-.17,0,.24.24,0,0,1-.21-.27v0l.16-1-.72-.72a.28.28,0,0,1-.08-.15.26.26,0,0,1,.22-.29l1-.15L19,5.2a.28.28,0,0,1,.09-.1.27.27,0,0,1,.35.12l.45.91,1,.15a.29.29,0,0,1,.14.08A.26.26,0,0,1,21,6.71Zm14.34-1.9h1.11V7.54l-.21,1.34h-.68l-.22-1.34Zm-6.66,5.36a2.41,2.41,0,0,1-.83.42,4.22,4.22,0,0,1-1,.13,2.85,2.85,0,0,1-1-.18A2,2,0,0,1,25,10a2.48,2.48,0,0,1-.55-.94,4.18,4.18,0,0,1-.19-1.36,3.43,3.43,0,0,1,.23-1.38,2.49,2.49,0,0,1,.62-.94A2.68,2.68,0,0,1,26,4.85a3.37,3.37,0,0,1,1-.15,5.1,5.1,0,0,1,.87.07,4.44,4.44,0,0,1,.6.16l-.23,1a1.83,1.83,0,0,0-.46-.12,2.94,2.94,0,0,0-.66,0,2.38,2.38,0,0,0-.65.1,1.25,1.25,0,0,0-.52.36,1.79,1.79,0,0,0-.34.62,3.57,3.57,0,0,0-.12.92,2.75,2.75,0,0,0,.12.9,2.08,2.08,0,0,0,.32.63A1.36,1.36,0,0,0,27,9.71a1.52,1.52,0,0,0,.42-.06,1.09,1.09,0,0,0,.35-.15V8.4l-1.25-.13V7.58h2.14Zm4.93-.23a2.22,2.22,0,0,1-1.82.78,3,3,0,0,1-1.1-.21,2.08,2.08,0,0,1-.76-.62,2.86,2.86,0,0,1-.45-1,4.68,4.68,0,0,1-.15-1.24A3.45,3.45,0,0,1,30,5.48a2.22,2.22,0,0,1,1.82-.78,2.51,2.51,0,0,1,1.08.21,2.12,2.12,0,0,1,.77.62,2.56,2.56,0,0,1,.45.94,4.23,4.23,0,0,1,.15,1.23,3.53,3.53,0,0,1-.67,2.24Zm2.82.58a.71.71,0,0,1-.5.17.65.65,0,0,1-.48-.17.68.68,0,0,1,0-.92.65.65,0,0,1,.48-.17.71.71,0,0,1,.5.17.61.61,0,0,1,.18.46.58.58,0,0,1-.22.46Zm2.46-5.71V7.54l-.21,1.34H38l-.21-1.34V4.81Zm-.07,5.71h0a.79.79,0,0,1-1,0,.63.63,0,0,1-.12-.42.61.61,0,0,1,.18-.46.69.69,0,0,1,.49-.17.73.73,0,0,1,.49.17.61.61,0,0,1,.18.46A.62.62,0,0,1,38.82,10.52Zm7-2.87h-.12L45,8.37l.17,1a.43.43,0,0,1,0,.16.25.25,0,0,1-.33.12L44,9.16l-.9.48a.28.28,0,0,1-.18,0,.25.25,0,0,1-.2-.3l.16-1-.72-.72a.18.18,0,0,1-.07-.15.26.26,0,0,1,.22-.29l1-.15.45-.91A.2.2,0,0,1,43.84,6a.27.27,0,0,1,.35.12l.49,1,1,.15a.17.17,0,0,1,.14.08A.23.23,0,0,1,45.84,7.65Z"/><path class="cls-1" d="M32.9,6.92a1.82,1.82,0,0,0-.22-.63,1,1,0,0,0-1-.58,1.07,1.07,0,0,0-.94.48,2.74,2.74,0,0,0-.33,1.51,4.43,4.43,0,0,0,.07.81,2.45,2.45,0,0,0,.23.64,1.12,1.12,0,0,0,.4.41,1,1,0,0,0,.57.15,1.08,1.08,0,0,0,.93-.47A2.67,2.67,0,0,0,33,7.7,4.13,4.13,0,0,0,32.9,6.92Z"/><path class="cls-1" d="M14,31.89,12.36,14.33a4.43,4.43,0,0,0,1.41-1.93,5.46,5.46,0,0,0,.2-.77.6.6,0,0,0,0-.19,3.14,3.14,0,0,0,0-.75v-.13a2.18,2.18,0,0,0-.09-.63.67.67,0,0,0,0-.2A4,4,0,0,0,13.65,9a.53.53,0,0,0-.08-.15,2.6,2.6,0,0,0-.28-.49l-.15-.23a.09.09,0,0,0-.07-.08c0-.05-.1-.09-.14-.15a5.44,5.44,0,0,0-.41-.42l-.27-.21A3,3,0,0,0,11.82,7l-.36-.18-.3-.15L11,6.64h-.12a4,4,0,0,0-.75-.16,3.48,3.48,0,0,0-.79,0H9.2a3.1,3.1,0,0,0-.74.13,4.16,4.16,0,0,0-.74.28L7.59,7a3.92,3.92,0,0,0-.7.44A4.69,4.69,0,0,0,5.68,8.7a4.45,4.45,0,0,0,1.23,5.69v18.2A.87.87,0,0,0,7,33L13.9,46l6.56-4.36Z"/><path class="cls-1" d="M21.39,32.23c-.92.26-1.35,1.65-1,3.1a2.78,2.78,0,0,0,1.77,2.16c.85,4.64,6.65,8,9.66,8s8.81-3.4,9.67-8a2.8,2.8,0,0,0,1.76-2.16c.37-1.45-.08-2.84-1-3.1a1.1,1.1,0,0,0-.51,0l.17-.85c.52-2.17.73-3.15.43-4.37-.77-3.16-4.63-6.37-10.53-6.37S21.56,23.76,21.3,27a23.39,23.39,0,0,0,.75,5.19v.06A1.23,1.23,0,0,0,21.39,32.23Zm2.46,0a.24.24,0,0,0,0-.12,33.52,33.52,0,0,0,11.83-4,18.06,18.06,0,0,0,4.17,4.33v3.88c0,4-5.37,7.41-8,7.41s-8-3.43-8-7.4Z"/><path class="cls-1" d="M36.27,45.53v1.71l-3,1.87a2.66,2.66,0,0,1-2.8,0l-3-1.87V45.53l-5.36-2.77-7.22,4.81,2.8,5.29v2.45a.89.89,0,0,0,.89.89H45.17a.89.89,0,0,0,.89-.89V52.86l2.8-5.29-7.18-4.81Z"/><path class="cls-1" d="M57.62,8.19a4.4,4.4,0,0,0-3.57-1.78,4.23,4.23,0,0,0-.94.1H53a4.36,4.36,0,0,0-.77.26h-.06c-.09,0-.17.11-.27.16a3.38,3.38,0,0,0-.41.24c-.14.1-.26.21-.38.31a2,2,0,0,0-.26.24,2.74,2.74,0,0,0-.34.41c-.07.09-.13.16-.19.25s-.18.32-.26.48a2.8,2.8,0,0,0-.13.28,4.59,4.59,0,0,0-.18.56l-.06.25a3.26,3.26,0,0,0-.07.7v.14c0,.1,0,.2,0,.31a4,4,0,0,0,.08.58v.21a5.75,5.75,0,0,0,.23.66v.1a4.38,4.38,0,0,0,1.29,1.64l-1.6,17.6-6.5,9.74L49.68,46l6.89-13a.87.87,0,0,0,.11-.41V14.4a4.43,4.43,0,0,0,1.75-4.1A4.3,4.3,0,0,0,57.62,8.19Z"/></svg>