<?xml version="1.0" encoding="utf-8"?>
<!-- Generator: Adobe Illustrator 22.0.0, SVG Export Plug-In . SVG Version: 6.00 Build 0)  -->
<svg version="1.1" id="Layer_1" xmlns="http://www.w3.org/2000/svg" xmlns:xlink="http://www.w3.org/1999/xlink" x="0px" y="0px"
	 viewBox="0 0 14.5 12.5" style="enable-background:new 0 0 14.5 12.5;" xml:space="preserve">
<path d="M13.7,0.7c-0.4-0.4-1-0.3-1.4,0.1l-7.7,9L2,7.6C1.6,7.2,1,7.3,0.6,7.7C0.3,8.1,0.3,8.8,0.8,9.1l3.3,2.8
	C4.2,12,4.3,12,4.3,12s0,0,0.1,0s0.2,0.1,0.3,0.1l0,0l0,0c0.1,0,0.3,0,0.4-0.1c0,0,0.1,0,0.1-0.1c0.1-0.1,0.2-0.1,0.3-0.2L13.8,2
	C14.2,1.6,14.1,1,13.7,0.7z"/>
</svg>
