<?xml version="1.0" encoding="utf-8"?>
<!-- Generator: Adobe Illustrator 22.0.0, SVG Export Plug-In . SVG Version: 6.00 Build 0)  -->
<svg version="1.1" id="Layer_1" xmlns="http://www.w3.org/2000/svg" xmlns:xlink="http://www.w3.org/1999/xlink" x="0px" y="0px"
	 viewBox="0 0 67.7 59.4" style="enable-background:new 0 0 67.7 59.4;" xml:space="preserve">
<path id="laurels-with-torch" d="M45.8,11.7c-1.7-2.8-4.2-2.9-6-2.9s-2.4-0.1-2.9-1.5s1.7-3.3,2.8-4.1c0.7-0.5,0.9-1.4,0.5-2.1
	C40.1,1,40,0.8,39.8,0.7c-1-0.6-2.2-0.8-3.4-0.7c-1.4,0-2.9,0.2-4.3,0.4c-6.5,1.4-11.1,7.3-10.7,14c0.5,7,6.6,10.3,6.8,10.5
	c0.2,0.1,0.5,0.2,0.7,0.2h2.4c0.8,0,1.5-0.7,1.5-1.5c0-0.3-0.1-0.7-0.3-0.9l-0.2-0.3c-1.4-1.9-2.3-4.2-2.5-6.7
	c-0.1-1.8,0.5-3.6,1.5-5c0.3,1.2,0.8,2.4,1.5,3.5c1,1.3,2.3,2.1,3.9,2.4c1.6,0.5,2.2,0.7,2.1,2.7c-0.1,1.4-0.2,2.7-0.5,4.1
	c-0.1,0.8,0.4,1.6,1.3,1.8c0.1,0,0.2,0,0.2,0h1.5c0.4,0,0.9-0.2,1.2-0.5C42.9,24.2,49.1,16.9,45.8,11.7L45.8,11.7z M23,49.1
	c-2.1-1-4.1-2.2-5.9-3.8l0.2-6.6c0-0.8-0.7-1.5-1.5-1.5c-0.8,0-1.5,0.6-1.5,1.4l-0.1,3.9c-0.9-1-1.8-2.1-2.5-3.3l2-5.9
	c0.2-0.8-0.2-1.6-1-1.9c-0.8-0.2-1.6,0.2-1.9,0.9l-1.1,3.2c-0.5-1-0.8-2.1-1.1-3.2l3.4-6c0.4-0.7,0.2-1.7-0.6-2.1
	c-0.7-0.4-1.7-0.2-2.1,0.6l0,0l-1.6,2.9c-0.2-1.6-0.2-3.2-0.1-4.8l4.5-4.6c0.6-0.6,0.5-1.6-0.1-2.1c-0.6-0.5-1.5-0.5-2.1,0L8.2,18
	c0.3-1.4,0.8-2.8,1.4-4.1l4.4-1.6c0.8-0.3,1.2-1.2,0.9-2c-0.3-0.8-1.1-1.2-1.9-0.9l0,0l-1.2,0.4c0.4-0.7,1-1.3,1.5-2
	c0.5-0.6,0.5-1.6-0.2-2.1c-0.6-0.5-1.5-0.5-2,0.1c-0.8,0.9-1.6,1.9-2.2,3L8.2,7C7.9,6.2,7.1,5.8,6.3,6C5.5,6.3,5.1,7.1,5.3,7.9
	l1.5,4.7c-0.7,1.7-1.3,3.4-1.7,5.2l-1.2-2.1c-0.4-0.7-1.3-1-2-0.6s-1,1.3-0.6,2c0,0,0.1,0.1,0.1,0.1l3.1,5.3
	c-0.1,2.1-0.1,4.3,0.2,6.4l-2.4-1.6c-0.7-0.5-1.6-0.3-2.1,0.4c-0.5,0.7-0.3,1.6,0.4,2.1l0,0l4.9,3.2c0.4,1.5,0.9,2.9,1.6,4.3
	l-3.5-0.9c-0.8-0.2-1.6,0.2-1.9,1c-0.2,0.8,0.2,1.6,1,1.9c0,0,0,0,0.1,0l6.4,1.7c0.9,1.4,1.9,2.6,3,3.8l-3.6,0.1
	c-0.8,0-1.5,0.7-1.5,1.5s0.7,1.5,1.5,1.5c0,0,0,0,0.1,0h0l6-0.1c0.2,0,0.4,0,0.5-0.1c2,1.6,4.2,3,6.6,4.1c0.8,0.3,1.7-0.1,2-0.8
	S23.8,49.4,23,49.1L23,49.1z M43.8,51.1c0.3,0.8,1.2,1.2,2,0.9c2.4-1,4.6-2.4,6.6-4.1c0.2,0.1,0.3,0.1,0.5,0.1l6,0.1h0
	c0.8,0,1.5-0.6,1.6-1.5c0-0.8-0.6-1.5-1.5-1.6c0,0,0,0-0.1,0L55.4,45c1.1-1.2,2.1-2.5,3-3.8l6.4-1.7c0.8-0.2,1.3-1.1,1-1.9
	c-0.2-0.8-1-1.3-1.8-1.1l-3.5,0.9c0.6-1.4,1.2-2.9,1.6-4.3l4.9-3.2c0.7-0.5,0.9-1.4,0.4-2.1c-0.5-0.7-1.4-0.9-2.1-0.4L62.9,29
	c0.3-2.1,0.4-4.3,0.2-6.4l3.1-5.3c0.5-0.7,0.3-1.6-0.4-2.1c-0.7-0.5-1.6-0.3-2.1,0.4c0,0-0.1,0.1-0.1,0.1l-1.2,2.1
	c-0.4-1.8-1-3.5-1.7-5.2l1.5-4.7c0.2-0.8-0.2-1.6-1-1.9c-0.8-0.2-1.6,0.2-1.9,0.9l-0.6,1.8c-0.6-1.1-1.4-2.1-2.2-3
	c-0.6-0.6-1.6-0.5-2.1,0.1c-0.5,0.6-0.6,1.4,0,2c0.5,0.6,1.1,1.3,1.5,2l-1.2-0.4l0,0c-0.8-0.3-1.7,0.1-2,0.9s0.1,1.7,0.9,2
	c0,0,0,0,0.1,0l4.4,1.6c0.6,1.3,1,2.7,1.4,4.1l-1.6-1.7c-0.6-0.6-1.6-0.6-2.1,0c-0.6,0.6-0.6,1.5,0,2.1l4.5,4.6
	c0.1,1.6,0,3.2-0.1,4.8l-1.6-2.9l0,0C58,24.2,57,24,56.3,24.4c-0.7,0.4-0.9,1.3-0.6,2l3.4,6c-0.3,1.1-0.7,2.2-1.1,3.2L57,32.4
	c-0.2-0.8-1.1-1.3-1.9-1s-1.3,1.1-1,1.9c0,0,0,0,0,0.1l2,5.9c-0.8,1.2-1.6,2.2-2.5,3.3l-0.1-3.9c0-0.8-0.8-1.5-1.6-1.4
	c-0.8,0-1.4,0.7-1.4,1.5l0.2,6.6c-1.8,1.5-3.8,2.8-5.9,3.8C43.9,49.4,43.6,50.3,43.8,51.1L43.8,51.1z M46.5,25.5H24.1
	c0,2.6,1.8,4.9,4.4,5.5c1.4,3.7,4.1,5.9,4.4,11.3c-1.1,0.3-1.9,2.2-1.9,2.2s0.8,1.9,1.9,2.2c-0.1,6.7-0.1,12.6,2.6,12.6
	s2.6-5.9,2.6-12.6c1.1-0.3,1.9-2.2,1.9-2.2s-0.8-1.9-1.9-2.2c0.3-5.4,3.1-7.6,4.5-11.4C44.9,30.2,46.5,28,46.5,25.5L46.5,25.5z"/>
</svg>
