<svg id="Layer_1" data-name="Layer 1" xmlns="http://www.w3.org/2000/svg" viewBox="0 0 64 64"><defs></defs><title>msig-ico</title><path id="Union_2" data-name="Union 2" class="cls-1" d="M15,64a5.62,5.62,0,0,1-5.62-5.63,7.5,7.5,0,0,0,0-15h0V39.62a7.5,7.5,0,0,0,0-15h0v-4a7.5,7.5,0,0,0,0-15h0A5.62,5.62,0,0,1,15,0H56.25a6,6,0,0,1,4.1,1.65,5.42,5.42,0,0,1,1.77,4V54a10,10,0,0,1-10,10H15Zm5.65-22.48a1.88,1.88,0,0,0,0,2.65l4.27,4.28a1.88,1.88,0,0,0,2.65,0h0l7.5-7.5a1.88,1.88,0,0,0-2.62-2.69l0,0-6.17,6.17L23.3,41.52a1.88,1.88,0,0,0-2.65,0Zm18.66,2a1.89,1.89,0,0,0,1.89,1.89H52.55a1.89,1.89,0,0,0,.08-3.78H41.2a1.89,1.89,0,0,0-1.89,1.89Zm-18.66-17a1.88,1.88,0,0,0,0,2.65l4.27,4.28a1.88,1.88,0,0,0,2.65,0h0l7.5-7.5a1.88,1.88,0,0,0-2.66-2.65l-6.17,6.17L23.3,26.52a1.88,1.88,0,0,0-2.65,0Zm18.73,1.86a1.87,1.87,0,0,0,1.87,1.87H52.5a1.88,1.88,0,1,0,0-3.75H41.25a1.88,1.88,0,0,0-1.87,1.88ZM20.65,11.27a1.88,1.88,0,0,0,0,2.65l4.27,4.28a1.88,1.88,0,0,0,2.65,0h0l7.5-7.5a1.88,1.88,0,0,0-2.66-2.65h0l-6.17,6.17-2.95-3a1.88,1.88,0,0,0-2.65,0Zm18.73,1.85A1.88,1.88,0,0,0,41.25,15H52.5a1.88,1.88,0,1,0,0-3.75H41.25a1.88,1.88,0,0,0-1.87,1.88ZM5.63,54.62a3.75,3.75,0,0,1,0-7.5H9.38a3.75,3.75,0,1,1,0,7.5Zm0-18.74a3.75,3.75,0,0,1,0-7.5H9.38a3.75,3.75,0,0,1,0,7.5Zm0-19a3.75,3.75,0,0,1,0-7.5H9.38a3.75,3.75,0,1,1,0,7.5Z"/></svg>