<?xml version="1.0" encoding="UTF-8" standalone="no"?>
<!DOCTYPE svg PUBLIC "-//W3C//DTD SVG 1.1//EN" "http://www.w3.org/Graphics/SVG/1.1/DTD/svg11.dtd">
<svg width="100%" height="100%" viewBox="0 0 497 162" version="1.1" xmlns="http://www.w3.org/2000/svg" xmlns:xlink="http://www.w3.org/1999/xlink" xml:space="preserve" xmlns:serif="http://www.serif.com/" style="fill-rule:evenodd;clip-rule:evenodd;stroke-linejoin:round;stroke-miterlimit:2;">
    <g transform="matrix(1,0,0,1,-46.775,-215.775)">
        <g transform="matrix(4.16667,0,0,4.16667,0,0)">
            <path d="M62.934,89.84L53.202,89.84L59.285,52.455L69.018,52.455L62.934,89.84Z" style="fill:rgb(0,102,179);fill-rule:nonzero;"/>
            <path d="M45.013,52.455L35.734,78.168L34.636,72.631L34.637,72.633L31.362,55.822C31.362,55.822 30.966,52.455 26.745,52.455L11.406,52.455L11.226,53.088C11.226,53.088 15.918,54.063 21.407,57.362L29.863,89.84L40.003,89.84L55.489,52.455L45.013,52.455Z" style="fill:rgb(0,102,179);fill-rule:nonzero;"/>
            <path d="M110.859,76.615L115.974,62.625L118.851,76.615L110.859,76.615ZM121.569,89.84L130.506,89.84L122.714,52.455L114.889,52.455C111.275,52.455 110.396,55.241 110.396,55.241L95.88,89.84L106.025,89.84L108.055,84.287L120.428,84.287L121.569,89.84Z" style="fill:rgb(0,102,179);fill-rule:nonzero;"/>
            <path d="M96.641,61.445L98.03,53.416C98.03,53.416 93.744,51.786 89.276,51.786C84.446,51.786 72.976,53.898 72.976,64.162C72.976,73.821 86.438,73.941 86.438,79.013C86.438,84.084 74.364,83.178 70.379,79.978L68.931,88.371C68.931,88.371 73.277,90.483 79.918,90.483C86.559,90.483 96.581,87.043 96.581,77.684C96.581,67.965 82.998,67.059 82.998,62.834C82.998,58.607 92.476,59.15 96.641,61.445Z" style="fill:rgb(0,102,179);fill-rule:nonzero;"/>
            <path d="M34.637,72.633L31.362,55.822C31.362,55.822 30.966,52.455 26.745,52.455L11.406,52.455L11.226,53.088C11.226,53.088 18.599,54.616 25.672,60.341C32.432,65.812 34.637,72.633 34.637,72.633Z" style="fill:rgb(250,166,51);fill-rule:nonzero;"/>
        </g>
    </g>
</svg>
