<svg id="Group_1556" data-name="Group 1556" xmlns="http://www.w3.org/2000/svg" width="81.07" height="74.315" viewBox="0 0 81.07 74.315">
  <path id="Path_407" data-name="Path 407" d="M490.24,289.8l9.351-11.22-6.755-10.134H472.567l-6.755,10.134,9.351,11.22a26.967,26.967,0,0,0-14.228,41.905,16.851,16.851,0,0,0,5.9-3.39,20.167,20.167,0,0,1,2.327-27.621,19.918,19.918,0,1,1-9.419-4.814,30.633,30.633,0,0,1,5.889-5.249,27.023,27.023,0,1,0,3.565,48.478,27,27,0,1,0,21.04-49.31Zm-2.936-1.755,2.244-6.086h2.83Zm5.174-14.042,2.9,4.351-.186.226h-4.4Zm-2.8-2.178-1.643,4.462-2.5-4.462Zm-3.733,10.134-2.5,6.792c-.252-.006-.495-.037-.746-.037s-.495.031-.743.037l-2.5-6.792Zm-3.25-8.29,2.75,4.911h-5.52Zm-2.842-1.844-2.5,4.434-1.632-4.434Zm-9.837,6.529L472.927,274l1.687,4.582h-4.405Zm3,3.6h2.83s2.949,6.086,2.241,6.086S473.025,281.963,473.025,281.963Zm9.677,54.046a19.98,19.98,0,0,1-7.578-1.529,26.9,26.9,0,0,0-.066-37.5,20.263,20.263,0,1,1,7.644,39.027Z" transform="translate(-428.655 -268.45)" fill="#fff"/>
</svg>
