<?xml version="1.0" encoding="utf-8"?>
<!-- Generator: Adobe Illustrator 22.0.0, SVG Export Plug-In . SVG Version: 6.00 Build 0)  -->
<svg version="1.1" id="Layer_1" xmlns="http://www.w3.org/2000/svg" xmlns:xlink="http://www.w3.org/1999/xlink" x="0px" y="0px"
	 viewBox="0 0 21.8 24" style="enable-background:new 0 0 21.8 24;" xml:space="preserve">
<path d="M18.6,2.7h-2.8V1c0-0.3-0.2-0.5-0.5-0.5S14.8,0.7,14.8,1v1.7H7V1c0-0.3-0.2-0.5-0.5-0.5S6,0.7,6,1v1.7H3.2
	c-1.5,0-2.7,1.2-2.7,2.7v15.4c0,1.5,1.2,2.7,2.7,2.7h15.4c1.5,0,2.7-1.2,2.7-2.7V5.4C21.3,3.9,20.1,2.7,18.6,2.7z M3.2,3.7H6v1.7
	c0,0.3,0.2,0.5,0.5,0.5S7,5.7,7,5.4V3.7h7.8v1.7c0,0.3,0.2,0.5,0.5,0.5s0.5-0.2,0.5-0.5V3.7h2.8c0.9,0,1.7,0.8,1.7,1.7v3.9H1.5V5.4
	C1.5,4.5,2.3,3.7,3.2,3.7z M18.6,22.5H3.2c-0.9,0-1.7-0.8-1.7-1.7V10.3h18.8v10.5C20.3,21.7,19.5,22.5,18.6,22.5z"/>
</svg>
