<svg xmlns="http://www.w3.org/2000/svg" width="64" height="64" viewBox="0 0 64 64">
  <g id="motorcycle-icon" transform="translate(-770 -366)">
    <rect id="Rectangle_2106" data-name="Rectangle 2106" width="64" height="64" transform="translate(770 366)" fill="none"/>
    <g id="Group_1792" data-name="Group 1792" transform="translate(1083.056 72.381)">
      <path id="Path_472" data-name="Path 472" d="M-253.029,320.68a11.748,11.748,0,0,1-3.528-3.241c-3.328-4.046-7.12-7.645-12.507-8.32a121.156,121.156,0,0,0-13.978-.5c-3.957-.035-7.227,1.718-10.137,4.3q-3.252,2.884-6.669,5.578a6.313,6.313,0,0,1-2.273.9c-2.485.662-5.006,1.2-7.467,1.933-.7.211-1.251.947-1.87,1.442a5.26,5.26,0,0,0,2-.016c1.091-.14,2.178-.067,2.3,1.307.117,1.335-.864,1.876-2.025,2-.854.092-1.726.018-2.84.018,0,.607,0,1.053,0,1.5,0,1.323-.091,2.655.035,3.966a4.48,4.48,0,0,0,4.089,4c.469-5.878,3.622-9.475,8.479-9.711a9.269,9.269,0,0,1,6.271,1.9,9.073,9.073,0,0,1,3.49,7.692h16.349c.437-5.91,3.632-9.435,8.623-9.657a8.9,8.9,0,0,1,6.335,2.128,8.8,8.8,0,0,1,3.147,7.808,4.6,4.6,0,0,0,4.307-4.649c.058-1.932-.141-3.885.075-5.795A4.26,4.26,0,0,0-253.029,320.68Zm-25.1-1.5h-17.953c5.126-4.955,10.229-9.323,17.953-8.2Zm4.016.022v-8.183c5.46-.081,13.611,3.618,14.828,8.183Z" transform="translate(0 0)" fill="#012059"/>
      <path id="Path_473" data-name="Path 473" d="M-171.362,371.553a6.89,6.89,0,0,0-7.007,6.924,6.979,6.979,0,0,0,7.022,6.938,7.073,7.073,0,0,0,7.05-6.954A7.007,7.007,0,0,0-171.362,371.553Zm-.036,10.807a3.934,3.934,0,0,1-3.927-3.971,3.916,3.916,0,0,1,3.931-3.822,3.968,3.968,0,0,1,4.025,3.906A3.972,3.972,0,0,1-171.4,382.36Z" transform="translate(-92.845 -43.707)" fill="#012059"/>
      <path id="Path_474" data-name="Path 474" d="M-284.784,371.574a6.973,6.973,0,0,0-6.989,6.979,7.054,7.054,0,0,0,7.112,6.876,6.956,6.956,0,0,0,6.941-7A6.863,6.863,0,0,0-284.784,371.574Zm-.038,10.8a4.035,4.035,0,0,1-3.92-3.88,4.05,4.05,0,0,1,4.039-3.913,3.9,3.9,0,0,1,3.942,3.959A3.918,3.918,0,0,1-284.821,382.375Z" transform="translate(-14.086 -43.722)" fill="#012059"/>
    </g>
  </g>
</svg>
