<?xml version="1.0" encoding="utf-8"?>
<!-- Generator: Adobe Illustrator 22.0.0, SVG Export Plug-In . SVG Version: 6.00 Build 0)  -->
<svg version="1.1" id="Group_1555" xmlns="http://www.w3.org/2000/svg" xmlns:xlink="http://www.w3.org/1999/xlink" x="0px" y="0px"
	 viewBox="0 0 58.4 62.9" style="enable-background:new 0 0 58.4 62.9;" xml:space="preserve">
<style type="text/css">
	.st0{fill:#1B1464;}
</style>
<g>
	<path class="st0" d="M9.4,42.5c0-1.7-1.4-3.1-3.1-3.1H3.1c-1.7,0-3.1,1.4-3.1,3.1s1.4,3.1,3.1,3.1h3.1C8,45.6,9.4,44.2,9.4,42.5z"
		/>
	<path class="st0" d="M3.1,30h3.1c1.7,0,3.1-1.4,3.1-3.1c0-1.7-1.4-3.1-3.1-3.1H3.1c-1.7,0-3.1,1.4-3.1,3.1C0,28.6,1.4,30,3.1,30z"
		/>
	<path class="st0" d="M3.1,14.1h3.1c1.7,0,3.1-1.4,3.1-3.1S8,7.8,6.3,7.8H3.1C1.4,7.8,0,9.2,0,11S1.4,14.1,3.1,14.1z"/>
	<path class="st0" d="M45.4,0H11C8.4,0,6.3,2.1,6.3,4.7c3.5,0,6.3,2.8,6.3,6.3c0,3.5-2.8,6.3-6.3,6.3v3.3c3.5,0,6.3,2.8,6.3,6.3
		c0,3.5-2.8,6.3-6.3,6.3v3.1c3.5,0,6.3,2.8,6.3,6.3c0,3.5-2.8,6.3-6.3,6.3c0,2.6,2.1,4.7,4.7,4.7h21.2c-1-2-1.7-4.2-1.8-6.4
		c-0.2-3.2-0.2-6.4-0.2-9.5v-2.2c0.1-1.8,1.2-3.3,2.9-3.9c3.2-1,6.3-1.9,9.6-2.8c0.9-0.3,1.8-0.3,2.7,0c1.6,0.5,3.3,0.9,4.9,1.4V4.7
		C50.2,2.1,48.1,0,45.4,0z M27.7,34.2L27.7,34.2l-6.3,6.3c-0.6,0.6-1.6,0.6-2.2,0l-3.6-3.6c-0.6-0.6-0.6-1.6,0-2.2
		c0.6-0.6,1.6-0.6,2.2,0l2.5,2.5l5.2-5.2c0.6-0.6,1.6-0.6,2.2,0C28.3,32.6,28.3,33.6,27.7,34.2z M27.7,21.7L27.7,21.7l-6.3,6.3
		c-0.6,0.6-1.6,0.6-2.2,0l-3.6-3.6c-0.6-0.6-0.6-1.6,0-2.2c0.6-0.6,1.6-0.6,2.2,0l2.5,2.5l5.2-5.2c0.6-0.6,1.6-0.6,2.2,0
		S28.3,21.1,27.7,21.7z M27.7,8.9L27.7,8.9l-6.3,6.3c-0.6,0.6-1.6,0.6-2.2,0l-3.6-3.6C15,11,15,10,15.6,9.4c0.6-0.6,1.6-0.6,2.2-0.1
		c0,0,0,0,0.1,0.1l2.5,2.5l5.2-5.2c0.6-0.6,1.6-0.6,2.2,0C28.3,7.3,28.3,8.3,27.7,8.9z M42.3,25.3h-9.4c-0.9,0-1.6-0.7-1.6-1.6
		c0-0.9,0.7-1.6,1.6-1.6h9.4c0.9,0,1.6,0.7,1.6,1.6C43.8,24.6,43.2,25.3,42.3,25.3z M42.3,12.5h-9.4c-0.9,0-1.6-0.7-1.6-1.6
		c0-0.9,0.7-1.6,1.6-1.6h9.4c0.9,0,1.6,0.7,1.6,1.6C43.8,11.8,43.2,12.5,42.3,12.5z"/>
	<path class="st0" d="M53.4,31.9c-2.9-0.8-5.6-1.6-8.3-2.4c-0.3-0.1-0.7-0.1-1-0.1c-0.4,0-0.8,0.1-1.2,0.2c-3.2,0.9-6.4,1.8-9.5,2.8
		c-1.3,0.5-2.2,1.6-2.2,3v2.2c0,3.1,0,6.3,0.2,9.5c0.4,6.4,5.3,12.7,11.5,14.7c0.4,0.1,0.9,0.2,1.3,0.2c0.5,0,0.9-0.1,1.3-0.2
		c6.3-2.5,10.1-6.9,11-12.7c0.5-3.3,0.7-6.6,0.7-9.9l0-0.1c0-1.4,0.1-2.8,0.1-4.2l0.1-1.7L53.4,31.9z M54.5,48.6
		c-0.9,5.5-4.6,9-9.7,11c-0.4,0.1-0.8,0.1-1.2,0c-5.2-1.7-9.7-7.3-10-12.8c-0.2-3.8-0.2-7.7-0.2-11.6c0.1-0.4,0.3-0.8,0.7-0.9
		c3.2-1,6.3-1.9,9.5-2.8c0.3-0.1,0.7-0.1,1,0c3.5,1,6.9,2,10.7,3.1C55,39.3,55.2,44.1,54.5,48.6z"/>
	<polygon class="st0" points="48.7,45.4 49.7,51 44.7,48.4 39.7,51 40.6,45.4 36.5,41.5 42.2,40.7 44.7,35.6 47.2,40.7 52.8,41.5 	
		"/>
</g>
</svg>
