<?xml version="1.0" encoding="utf-8"?>
<!-- Generator: Adobe Illustrator 22.0.0, SVG Export Plug-In . SVG Version: 6.00 Build 0)  -->
<svg version="1.1" id="Layer_1" xmlns="http://www.w3.org/2000/svg" xmlns:xlink="http://www.w3.org/1999/xlink" x="0px" y="0px"
	 viewBox="0 0 52.6 47.4" style="enable-background:new 0 0 52.6 47.4;" xml:space="preserve">
<g>
	<path d="M49.3,20H12c-1.8,0-3.2,1.5-3.2,3.2v21c0,1.8,1.4,3.2,3.2,3.2h37.3c1.8,0,3.2-1.4,3.2-3.2v-21C52.6,21.4,51.1,20,49.3,20z
		 M21.2,41.9c0,0.3-0.2,0.5-0.5,0.5h-6.5c-0.3,0-0.5-0.2-0.5-0.5v-1c0-0.3,0.2-0.5,0.5-0.5h6.5c0.3,0,0.5,0.2,0.5,0.5V41.9z
		 M30.3,41.9c0,0.3-0.2,0.5-0.5,0.5h-6.5c-0.3,0-0.5-0.2-0.5-0.5v-1c0-0.3,0.2-0.5,0.5-0.5h6.5c0.3,0,0.5,0.2,0.5,0.5V41.9z
		 M39.4,41.9c0,0.3-0.2,0.5-0.5,0.5h-6.5c-0.3,0-0.5-0.2-0.5-0.5v-1c0-0.3,0.2-0.5,0.5-0.5h6.5c0.3,0,0.5,0.2,0.5,0.5V41.9z
		 M48.5,41.9c0,0.3-0.2,0.5-0.5,0.5h-6.5c-0.3,0-0.5-0.2-0.5-0.5v-1c0-0.3,0.2-0.5,0.5-0.5H48c0.3,0,0.5,0.2,0.5,0.5V41.9z
		 M48.5,29.4c0,0.3-0.2,0.5-0.5,0.5h-9.5c-0.3,0-0.5-0.2-0.5-0.5v-4.3c0-0.3,0.2-0.5,0.5-0.5h9.6c0.3,0,0.5,0.2,0.5,0.5V29.4z"/>
	<path d="M42.8,2.5c-0.4-1.7-2.1-2.8-3.9-2.4L2.5,8.3v0c0,0,0,0,0,0c-1.7,0.4-2.8,2.1-2.4,3.9l4.6,20.4c0.3,1.4,1.8,2.3,3.2,2l0,0
		v-2.2l-0.3,0.1c0,0,0,0,0,0c-0.4,0.1-0.7-0.1-0.8-0.5l-0.2-0.9L4.2,20.4l38.4-8.7l1.7,7.6h2.3L42.8,2.5z M2.9,14.3L2.9,14.3
		c-0.2-0.8-0.4-1.6-0.5-2.4c-0.2-0.7,0.3-1.3,0.9-1.5l36-8.1c0.7-0.1,1.3,0.3,1.5,0.9l0.5,2.4L2.9,14.3z"/>
</g>
</svg>
