<svg xmlns="http://www.w3.org/2000/svg" width="14" height="11" viewBox="0 0 14 11">
  <g id="envelope" transform="translate(0 -54.82)">
    <g id="Group_566" data-name="Group 566" transform="translate(0 54.82)">
      <path id="Path_339" data-name="Path 339" d="M1.344,58.13q.266.183,1.6,1.087t2.047,1.392l.332.233q.254.179.422.29t.406.248a2.384,2.384,0,0,0,.449.206,1.265,1.265,0,0,0,.391.069h.016a1.266,1.266,0,0,0,.391-.069,2.386,2.386,0,0,0,.449-.206q.238-.137.406-.248t.422-.29q.254-.179.332-.233l3.656-2.479a3.667,3.667,0,0,0,.953-.938A1.982,1.982,0,0,0,14,56.04a1.155,1.155,0,0,0-.371-.862,1.222,1.222,0,0,0-.879-.358H1.25a1.128,1.128,0,0,0-.926.4A1.515,1.515,0,0,0,0,56.208a1.758,1.758,0,0,0,.43,1.041A3.836,3.836,0,0,0,1.344,58.13Z" transform="translate(0 -54.82)" fill="#fff"/>
      <path id="Path_340" data-name="Path 340" d="M13.219,185.124q-2.562,1.754-3.89,2.726-.445.332-.723.517a4.44,4.44,0,0,1-.738.379,2.227,2.227,0,0,1-.859.194H6.992a2.228,2.228,0,0,1-.859-.194,4.442,4.442,0,0,1-.738-.379q-.277-.186-.723-.517-1.055-.782-3.883-2.726A4.152,4.152,0,0,1,0,184.437v6.273a1.224,1.224,0,0,0,.367.893,1.2,1.2,0,0,0,.883.371h11.5a1.2,1.2,0,0,0,.883-.371A1.224,1.224,0,0,0,14,190.71v-6.273A4.323,4.323,0,0,1,13.219,185.124Z" transform="translate(0 -180.975)" fill="#fff"/>
    </g>
  </g>
</svg>
