<svg id="Layer_1" data-name="Layer 1" xmlns="http://www.w3.org/2000/svg" viewBox="0 0 32 32"><defs></defs><title>msig-ico</title><path class="cls-1" d="M28.58,10.51H20.86V2.84A2.86,2.86,0,0,0,18,0H4.79A2.86,2.86,0,0,0,1.94,2.84V29.16A2.86,2.86,0,0,0,4.79,32H18a2.86,2.86,0,0,0,2.85-2.84V23h7.72a1.5,1.5,0,0,0,1.48-1.48V12A1.48,1.48,0,0,0,28.58,10.51ZM19.3,20.71H16.68a.22.22,0,0,1-.22-.23h0V20a.22.22,0,0,1,.22-.22H19.3Zm-9.48-18H13c.21,0,.37.24.37.53s-.16.54-.37.54H9.82c-.21,0-.38-.24-.38-.54S9.61,2.74,9.82,2.74ZM11.4,30.49a1.76,1.76,0,1,1,1.76-1.76A1.76,1.76,0,0,1,11.4,30.49Zm7.9-5H3.51V6.54H19.3v4H11.54A1.48,1.48,0,0,0,10.07,12v9.57A1.49,1.49,0,0,0,11.54,23H19.3ZM15.73,20h0v.45a.22.22,0,0,1-.22.23h-3a.23.23,0,0,1-.23-.23V20a.23.23,0,0,1,.23-.22h3A.22.22,0,0,1,15.73,20Zm8.33,0v.45a.22.22,0,0,1-.22.23h-3v-.9h3a.22.22,0,0,1,.22.22Zm4.16.45a.22.22,0,0,1-.22.23H25a.23.23,0,0,1-.23-.23h0V20A.23.23,0,0,1,25,19.8h3a.23.23,0,0,1,.23.23Zm0-7.63v2A.22.22,0,0,1,28,15H23.64a.23.23,0,0,1-.23-.23v-2a.23.23,0,0,1,.23-.23H28a.23.23,0,0,1,.23.23Z"/></svg>