<svg id="Layer_1" data-name="Layer 1" xmlns="http://www.w3.org/2000/svg" viewBox="0 0 32 32"><defs></defs><title>msig-ico</title><path id="Union_18" data-name="Union 18" class="cls-1" d="M5.34,20.45v-2l1.21-1.6a1.07,1.07,0,0,0,.18-1.51h0a1,1,0,0,0-.18-.17L5.34,13.55v-2s.13-1.72,1.25-.4L9.47,15a1.55,1.55,0,0,1,0,2L6.59,20.85c-.31.37-.54.5-.72.5C5.41,21.35,5.34,20.45,5.34,20.45Zm-2.11.4L.35,17a1.55,1.55,0,0,1,0-2l2.88-3.88c1.11-1.33,1.24.4,1.24.4v2L3.26,15.16a1,1,0,0,0-.17.18,1.07,1.07,0,0,0,.17,1.51h0l1.21,1.6v2s-.07.9-.52.9c-.18,0-.41-.13-.72-.5Zm26.64-1.21-1.8-2.48-1.8,2.48H24.16L27,15.72l-2.73-3.79h2.1l1.69,2.33,1.69-2.33h2.1l-2.73,3.79L32,19.64Zm-11.77,0V11.93h3.62a2.2,2.2,0,0,1,2.13,2.28v.14a2.62,2.62,0,0,1,0,.28,2.21,2.21,0,0,1-2.4,2H19.76v3Zm1.66-4.49h1.58c.16,0,.81,0,.78-.88s-.81-.88-.81-.88H19.76Zm-8,4.49V11.93h5.11v1.66H13.4V15h3.26V16.7H13.4v2.94Z"/></svg>