<svg id="Group_19" data-name="Group 19" xmlns="http://www.w3.org/2000/svg" width="94" height="54.524" viewBox="0 0 94 54.524">
  <path id="Path_188" data-name="Path 188" d="M9.634.789C9.7,2.861,9.765,4.9,9.8,7c1.315-.395,2.6-.789,3.946-1.184-.23.69-.427,1.315-.625,1.94s-.362,1.249-.559,1.94c.888-.23,1.743-.46,2.63-.69.132.46.263.954.395,1.512-1.743.46-3.518.921-5.294,1.381.395-1.249.756-2.5,1.151-3.781-1.052.329-2.071.625-3.091.954C8.319,7.76,8.286,6.412,8.22,5.1H8.187c-.493.756-.986,1.512-1.512,2.335C6.017,6.9,5.359,6.379,4.636,5.82c.2,1.019.427,1.973.625,2.959-.986.1-1.973.2-3.025.3l.493,1.184c.132.263.23.559.362.855.033.066-.033.2-.066.2-.427.2-.855.362-1.315.559C1.151,10.522.592,9.174,0,7.76c1.151-.132,2.236-.23,3.354-.362C2.959,5.59,2.6,3.781,2.2,1.94c.526.427,1.019.822,1.512,1.217.789.625,1.611,1.282,2.4,1.907.1.1.2.066.263-.066C7.234,3.65,8.121,2.3,8.976.954L9.6,0Z" transform="matrix(0.998, 0.07, -0.07, 0.998, 29.403, 4.614)"  fill-rule="evenodd"/>
  <g id="Group_406" data-name="Group 406" transform="translate(0 0)">
    <g id="Group_404" data-name="Group 404">
      <path id="Path_189" data-name="Path 189" d="M24.871,18.635a6.607,6.607,0,0,0-3.636.847,6.141,6.141,0,0,0-2.965,4.13.524.524,0,0,1-.459.459,1.36,1.36,0,0,1-1.835-.671c-.741-1.094-1.624-2.083-2.4-3.177a2.666,2.666,0,0,0-2.612-1.2,24.3,24.3,0,0,1-3.177.176A5.313,5.313,0,0,1,2.81,16.623C2,15.317,1.151,14.011.34,12.705a1.539,1.539,0,0,1,.388-2.224,1.55,1.55,0,0,1,2.188.6c.847,1.306,1.694,2.612,2.506,3.953a2.319,2.319,0,0,0,2.083,1.13c1.13,0,2.259-.106,3.424-.141a2.225,2.225,0,0,0,1.871-1.2,5.454,5.454,0,0,1,4.342-2.894,2.1,2.1,0,0,0,.953-.424c.6-.529,1.165-1.13,1.765-1.659a2.24,2.24,0,0,0,.671-2.33c-.424-1.8-.882-3.6-1.306-5.4A1.512,1.512,0,0,1,20.883.174a1.4,1.4,0,0,1,1.235,1.059c.494,1.977,1.059,3.953,1.447,5.965a5.012,5.012,0,0,1-1.624,4.871c-.212.176-.424.388-.6.565a.805.805,0,0,0-.106,1.235c.988,1.306,2.012,2.577,3,3.883C24.413,18,24.589,18.282,24.871,18.635Z" transform="translate(-0.034 -0.161)"  fill-rule="evenodd"/>
      <path id="Path_190" data-name="Path 190" d="M22.045,17.174a5.178,5.178,0,0,1,2.965,4.412,2.878,2.878,0,0,1-1.941,2.894,4.955,4.955,0,0,1-4.695-.529,3.807,3.807,0,0,1-1.2-5.083A3.9,3.9,0,0,1,22.045,17.174Zm.741,4.695a3.263,3.263,0,0,0-.635-3.424,2.972,2.972,0,0,0-.882-.459c-.106.282-.282.529-.388.812-.071.212-.071.459-.141.706a3.763,3.763,0,0,1-1.13,2.188,9.2,9.2,0,0,0-.847.812c-.424.424-.388.741.212.988A3.012,3.012,0,0,0,22.786,21.869Z" transform="translate(-10.797 -10.983)"  fill-rule="evenodd"/>
    </g>
    <g id="Group_405" data-name="Group 405" transform="translate(13.698 20.163)">
      <path id="Path_191" data-name="Path 191" d="M61.9,89.811a.5.5,0,0,1-.212.071c-.671.247-1.341.494-2.012.777a1.352,1.352,0,0,1-1.165-.106,2.541,2.541,0,0,1-.988-1.13,3.665,3.665,0,0,1-.141-.353C55.688,84.552,53.993,80,52.3,75.481A2.7,2.7,0,0,1,52.123,74a1.461,1.461,0,0,1,.953-1.2c.459-.141.882-.318,1.306-.494a.276.276,0,0,1,.282.035,3.938,3.938,0,0,0,5.718-2.118.475.475,0,0,1,.212-.247c.459-.176.918-.353,1.412-.529a1.276,1.276,0,0,1,1.13.106,2.541,2.541,0,0,1,.988,1.13,1.476,1.476,0,0,1,.141.353l5.083,13.554a3.074,3.074,0,0,1,.176,1.483,1.369,1.369,0,0,1-.953,1.165c-.741.247-1.412.529-2.153.812a1.72,1.72,0,0,0-.106-.247c-1.024-2.718-2.012-5.436-3.036-8.154a.786.786,0,0,0-1.13-.529c-.953.353-1.906.741-2.859,1.059a.807.807,0,0,0-.529,1.2c1.024,2.683,2.047,5.4,3.036,8.118C61.865,89.67,61.865,89.741,61.9,89.811Z" transform="translate(-47.407 -65.098)"  fill-rule="evenodd"/>
      <path id="Path_192" data-name="Path 192" d="M76.052,107.157l-2.012-5.4a.708.708,0,0,1,.494-1.059c.459-.176.918-.353,1.377-.494a.7.7,0,0,1,.953.424l4.13,11.013a.693.693,0,0,1-.424.953c-.459.176-.918.353-1.412.529a.7.7,0,0,1-.988-.459C77.428,110.792,76.722,108.992,76.052,107.157Z" transform="translate(-61.559 -85.019)"  fill-rule="evenodd"/>
      <path id="Path_193" data-name="Path 193" d="M41.121,62.937c1.13-.424,2.294-.847,3.424-1.271.141-.071.176-.106.176-.247a3.286,3.286,0,0,1,2.153-3.494,3.336,3.336,0,0,1,3.918,1.235.185.185,0,0,0,.282.071c2.294-.882,2.683-1.024,4.977-1.906a.4.4,0,0,1,.565.247,1.989,1.989,0,0,1,.141.424.4.4,0,0,1-.212.529c-.071.035-.141.035-.212.071-2.224.847-2.541.988-4.765,1.8-.141.071-.212.106-.176.282a3.34,3.34,0,0,1-6.071,2.259A.242.242,0,0,0,45,62.831c-2.259.847-3.071,1.165-5.33,2.012-.424.141-.565.071-.706-.318-.212-.6-.212-.671.424-.918C40.415,63.22,40.027,63.361,41.121,62.937ZM47.157,58.7a2.512,2.512,0,0,0-1.482,3.212,2.465,2.465,0,0,0,3.212,1.447,2.485,2.485,0,1,0-1.73-4.659Z" transform="translate(-38.841 -57.284)"  fill-rule="evenodd"/>
    </g>
  </g>
  <g id="Group_407" data-name="Group 407" transform="translate(51.542 2.725)">
    <path id="Path_194" data-name="Path 194" d="M156.7,59.17l3.18,5.2a3.131,3.131,0,0,0,2.684,1.487,3.278,3.278,0,0,0,1.61-.454,3.1,3.1,0,0,0,1.032-4.294L162.771,57.1l-.372-.619-.661-1.074,6.524-2.643h4.79a1.762,1.762,0,0,0,1.776-1.776,1.729,1.729,0,0,0-1.652-1.734,2.934,2.934,0,0,0-.165-1.776,3.054,3.054,0,0,0-.867-1.156h0L160.624,37a4.266,4.266,0,0,0-5.946.661,4.029,4.029,0,0,0-.5,4.46l-.248,2.023-5.574-2.106a2.221,2.221,0,1,0-1.528,4.171l.5.206,7.722,2.89a2.593,2.593,0,0,0,.785.124,2.336,2.336,0,0,0,1.156-.33,2.284,2.284,0,0,0,1.074-1.652l.206-1.569,3.51,2.849-5.7,2.312a3,3,0,0,0-1.776,1.9,3.194,3.194,0,0,0,.289,2.6l.826,1.363,1.61,2.643m-7.226-12.223" transform="translate(-145.378 -28.076)" />
    <path id="Path_195" data-name="Path 195" d="M212.7,67.9" transform="translate(-184.901 -46.758)" />
    <path id="Path_196" data-name="Path 196" d="M156.427,18.062a5.913,5.913,0,0,1,.991,5.864,3.148,3.148,0,0,1-3.3,2.023,5.653,5.653,0,0,1-4.542-2.684,4.253,4.253,0,0,1,1.115-5.7A4.316,4.316,0,0,1,156.427,18.062Z" transform="translate(-147.457 -16.699)"  fill-rule="evenodd"/>
  </g>
  <g id="Group_334_2_" transform="translate(32.619 15.691)">
    <path id="Path_156_2_" d="M171.2,73.433h22.215a.767.767,0,0,0,.619-.372c.661-1.4,1.28-2.89.619-3.84-.619-.908-2.147-1.321-5.244-1.321-1.982,0-4.46.165-7.1.33-3.262.206-6.978.454-10.612.454a.659.659,0,0,0-.578.33,7.616,7.616,0,0,0-.619,3.345v.5A.8.8,0,0,0,171.2,73.433Z" transform="translate(-141.203 -59.724)" />
    <path id="Path_157_2_" d="M158.785,71.265l.413-.124a.893.893,0,0,0,.454-.5l.413-2.065a.647.647,0,0,0-.206-.619l-2.23-1.982a.591.591,0,0,0-.413-.165l-2.725-.041c-.537-.454-2.106-1.817-2.849-2.436a.872.872,0,0,0-.413-.165H130.706a.652.652,0,0,0-.661.661.309.309,0,0,0,.041.206,5,5,0,0,0,.991,1.445,19,19,0,0,1,2.023,2.767,3.043,3.043,0,0,1,.33,2.849,5.477,5.477,0,0,1-3.138,2.932,13.6,13.6,0,0,1-3.427.33,24.53,24.53,0,0,1-6.483-.867c-3.675-1.074-4.336-9.291-3.964-10.695.206-.785,1.2-3.427,2.106-5.987.248-.7.5-1.321.7-1.9.165.124.289.206.289.206a.659.659,0,0,0,.7-1.115h0s-.248-.165-.537-.372a6.374,6.374,0,0,1,.372-.991h.041a.818.818,0,0,0,.454.454c.991.248,1.9.578,1.9.578a.524.524,0,0,0,.248.041.652.652,0,0,0,.661-.661.62.62,0,0,0-.454-.619c-.041,0-.991-.372-2.023-.619a.613.613,0,0,0-.578.165,3.311,3.311,0,0,0,.206-.867c0-1.239-4.666-2.973-6.153-3.014a1.37,1.37,0,0,0-1.074.537c-1.032,1.239-.5,4.79-.372,5.451a.658.658,0,0,0,.578.537l1.776.206A79.494,79.494,0,0,1,111.5,63.42a3.628,3.628,0,0,1-1.445.413c-.908.165-1.776.33-2.106.95a4.895,4.895,0,0,0-.248,2.436h-.289A8.723,8.723,0,0,0,99.86,71.6a1.773,1.773,0,0,0-.165,1.693,3.321,3.321,0,0,0,1.569,1.445,7.461,7.461,0,1,0,13.3,4.666,2.54,2.54,0,0,0-.041-.578c.661.248,1.528.661,1.776.785a.377.377,0,0,0,.454-.083.152.152,0,0,0,.041-.124,10.374,10.374,0,0,0,.165-1.115c1.982,1.61,4.129,1.734,7.267,1.734h17.219a8.184,8.184,0,0,0,16.269-1.28,3.777,3.777,0,0,0-.041-.7c2.395-.33,2.767-.743,2.973-.908a.967.967,0,0,0,.289-.7C160.849,74.775,159.528,72.463,158.785,71.265Zm-47.693,8.052a4.109,4.109,0,1,1-6.524-3.3c1.239.372,2.6.7,3.964,1.032.7.165,1.445.372,2.147.537A3.817,3.817,0,0,1,111.092,79.317Zm43.275-.7a4.831,4.831,0,1,1-9.662,0h0c3.551-.041,7.35-.248,9.621-.413,0,.165.041.289.041.413Z" transform="translate(-99.551 -48.1)" />
  </g>
</svg>
