<svg xmlns="http://www.w3.org/2000/svg" width="64" height="64" viewBox="0 0 64 64">
    <defs>
        <style>
            .cls-1{fill:none}.cls-2{fill:#1b1464}
        </style>
    </defs>
    <g id="motorcycle-icon" transform="translate(-770 -366)">
        <path id="Rectangle_2106" d="M0 0h64v64H0z" class="cls-1" data-name="Rectangle 2106" transform="translate(770 366)"/>
        <g id="Group_1730" data-name="Group 1730" transform="translate(773 380)">
            <g id="Group_403" data-name="Group 403">
                <path id="Path_287" d="M22.174 19.466H42.81a.624.624 0 0 0 .562-.358c.625-1.321 1.187-2.687.586-3.575-.576-.859-1.981-1.21-4.856-1.21-1.829 0-4.141.146-6.583.3-3.036.191-6.474.41-9.856.41a.622.622 0 0 0-.542.313 7.024 7.024 0 0 0-.585 3.089 3.259 3.259 0 0 0 .018.476.624.624 0 0 0 .62.555z" class="cls-2" data-name="Path 287" transform="translate(5.775 -6.692)"/>
                <path id="Path_288" d="M55.1 29.866l.373-.129a.628.628 0 0 0 .4-.465l.392-1.9a.622.622 0 0 0-.2-.591L54 24.928a.625.625 0 0 0-.4-.159l-2.519-.051c-.5-.43-1.973-1.693-2.636-2.247a.621.621 0 0 0-.4-.145H28.98a.624.624 0 0 0-.587.832 4.7 4.7 0 0 0 .928 1.356 20.332 20.332 0 0 1 1.893 2.553 2.864 2.864 0 0 1 .3 2.659 5.143 5.143 0 0 1-2.914 2.739 13.07 13.07 0 0 1-3.2.318 22.374 22.374 0 0 1-6.036-.819c-3.4-.983-4.043-8.615-3.681-9.935.2-.737 1.093-3.182 1.957-5.546l.639-1.753c.152.107.263.179.27.184a.623.623 0 0 0 .668-1.053s-.227-.146-.5-.354c.131-.366.241-.677.332-.938l.033.006a.613.613 0 0 0 .434.416c.9.221 1.746.524 1.755.528a.617.617 0 0 0 .212.038.624.624 0 0 0 .213-1.21c-.037-.013-.912-.328-1.883-.566a.606.606 0 0 0-.543.137 3.159 3.159 0 0 0 .2-.8c0-1.163-4.341-2.763-5.693-2.81a1.284 1.284 0 0 0-1.009.479c-.973 1.16-.453 4.428-.339 5.073a.622.622 0 0 0 .538.51l1.635.2a71.937 71.937 0 0 1-3.505 7.973 3.582 3.582 0 0 1-1.338.393c-.843.15-1.641.29-1.944.9a5.032 5.032 0 0 0-.243 2.255c-.094 0-.185-.019-.279-.019a8.134 8.134 0 0 0-7.019 4.05 1.7 1.7 0 0 0-.16 1.575 3.2 3.2 0 0 0 1.463 1.356 6.933 6.933 0 1 0 12.353 4.319c0-.185-.014-.37-.028-.555.621.228 1.43.607 1.657.727a.3.3 0 0 0 .454-.2 8.494 8.494 0 0 0 .137-1.053c1.843 1.5 3.82 1.6 6.73 1.6h16.094a7.6 7.6 0 0 0 15.113-1.2c0-.224-.015-.445-.033-.662 2.209-.312 2.569-.678 2.742-.857a.893.893 0 0 0 .271-.671c-.05-1.376-1.279-3.528-1.967-4.635zm-44.274 7.5a3.817 3.817 0 1 1-6.053-3.08c1.146.341 2.4.658 3.7.978.666.165 1.338.335 2 .5a3.811 3.811 0 0 1 .351 1.603zm40.142-.675a4.49 4.49 0 1 1-8.98 0c3.286-.024 6.84-.227 8.943-.363.008.123.035.242.035.364z" class="cls-2" data-name="Path 288" transform="translate(0 -8.306)"/>
            </g>
        </g>
    </g>
</svg>
