<svg xmlns="http://www.w3.org/2000/svg" width="53.095" height="60.663" viewBox="0 0 53.095 60.663">
  <g id="Group_158" data-name="Group 158" transform="translate(-79.918 21.78)">
    <path id="Path_83" data-name="Path 83" d="M102.6,29.385H82.357c-1.759,0-2.43-.637-2.433-2.376q-.014-9,0-17.993c0-1.664.7-2.365,2.363-2.366q20.4-.008,40.792,0c1.624,0,2.341.749,2.342,2.4q0,8.946,0,17.892c0,1.78-.678,2.445-2.477,2.445ZM98.423,18.476c0,1.361.011,2.721,0,4.082a.968.968,0,0,0,1.115,1.119c1.19,0,2.381.016,3.571,0a4.88,4.88,0,0,0,4.919-5.025c.041-3.056-1.9-5.245-4.8-5.361-1.189-.048-2.381,0-3.571-.012-.831-.006-1.258.345-1.24,1.223C98.443,15.823,98.423,17.15,98.423,18.476Zm-10.186-.131c0,1.328,0,2.656,0,3.984,0,.717.144,1.344,1.022,1.324.86-.02.868-.71.9-1.334a6.172,6.172,0,0,0,0-.816c-.046-.6.2-.875.825-.857.679.018,1.362,0,2.04-.047a3.459,3.459,0,0,0,3.4-3.7,3.611,3.611,0,0,0-3.473-3.8c-1.155-.057-2.315-.024-3.473-.007a1.106,1.106,0,0,0-1.246,1.263C88.251,15.689,88.237,17.017,88.237,18.345Zm23.94-3.028c.232-.03.363-.061.495-.063,1.258-.015,2.519.011,3.774-.053A.981.981,0,0,0,117.5,14.09c-.057-.73-.6-.815-1.182-.814-1.633,0-3.267.011-4.9,0-.841-.007-1.24.327-1.23,1.216.029,2.654.019,5.309,0,7.963,0,.658.139,1.169.9,1.21.843.045,1.011-.552,1.038-1.207.029-.713.038-1.431,0-2.143-.031-.586.2-.783.769-.768a23.461,23.461,0,0,0,3.059-.03c.372-.04.947-.469.979-.769.035-.321-.4-.79-.746-1.023a2.174,2.174,0,0,0-1.088-.135c-.97-.015-1.94-.005-2.931-.005Z" fill="#10144b"/>
    <path id="Path_84" data-name="Path 84" d="M133.009,15.227c0,5.828.012,11.656-.005,17.483a5.764,5.764,0,0,1-4.235,5.924,6.448,6.448,0,0,1-1.809.211c-11.145.011-22.289-.035-33.433.037a5.879,5.879,0,0,1-6-5.331,1.889,1.889,0,0,1,1.6-2.226,1.861,1.861,0,0,1,2.134,1.7c.314,1.566.929,2.086,2.5,2.087q16.461,0,32.922,0c1.724,0,2.5-.75,2.5-2.49q.015-15.542.011-31.082a3.975,3.975,0,0,0-4.338-4.286c-2.039.107-4.089.031-6.133.018a4.471,4.471,0,0,1-4.735-4.746c-.014-2.147.008-4.3,0-6.442a3.69,3.69,0,0,0-3.761-3.972c-5.657-.072-11.315-.046-16.972-.02-1.261.006-1.97.861-1.977,2.244-.017,3.033-.006,6.066-.006,9.1s.006,6.066,0,9.1a2.1,2.1,0,0,1-1.848,2.275A2.048,2.048,0,0,1,87.47,2.6C87.445-3.6,87.4-9.8,87.486-16a5.8,5.8,0,0,1,6.1-5.775c6.644.081,13.291.041,19.936.015a7.14,7.14,0,0,1,5.262,2.085c4.064,4.03,8.083,8.105,12.12,12.162a7.3,7.3,0,0,1,2.1,5.364Q133.019,6.537,133.009,15.227Z" fill="#10144b"/>
    <path id="Path_85" data-name="Path 85" d="M98.423,18.476c0-1.326.02-2.653-.007-3.979-.018-.878.409-1.229,1.24-1.223,1.19.009,2.382-.036,3.571.012,2.9.116,4.838,2.3,4.8,5.361a4.88,4.88,0,0,1-4.919,5.025c-1.19.021-2.381,0-3.571,0a.968.968,0,0,1-1.115-1.119C98.434,21.2,98.423,19.837,98.423,18.476Zm2.008,3.364c.934,0,1.75.028,2.563-.006a3.1,3.1,0,0,0,3.019-3.208c.063-2.018-1.018-3.383-2.875-3.535-.875-.071-1.761-.012-2.707-.012Z" fill="#fff"/>
    <path id="Path_86" data-name="Path 86" d="M88.237,18.345c0-1.328.014-2.656,0-3.984A1.106,1.106,0,0,1,89.478,13.1c1.158-.017,2.318-.05,3.473.007a3.611,3.611,0,0,1,3.473,3.8,3.459,3.459,0,0,1-3.4,3.7c-.678.045-1.361.065-2.04.047-.624-.018-.871.253-.825.857a6.172,6.172,0,0,1,0,.816c-.033.624-.041,1.314-.9,1.334-.878.02-1.026-.607-1.022-1.324C88.241,21,88.237,19.673,88.237,18.345Zm2.039-3.322v3.729c.889,0,1.705.048,2.513-.013a1.868,1.868,0,0,0,1.742-1.914,1.848,1.848,0,0,0-1.859-1.8C91.9,15,91.118,15.023,90.276,15.023Z" fill="#fff"/>
    <path id="Path_87" data-name="Path 87" d="M112.177,15.317v2.264c.991,0,1.961-.01,2.931.005a2.174,2.174,0,0,1,1.088.135c.346.233.781.7.746,1.023-.032.3-.607.729-.979.769a23.461,23.461,0,0,1-3.059.03c-.564-.015-.8.182-.769.768.038.712.029,1.43,0,2.143-.027.655-.195,1.252-1.038,1.207-.761-.041-.9-.552-.9-1.21.015-2.654.025-5.309,0-7.963-.01-.889.389-1.223,1.23-1.216,1.633.015,3.267.006,4.9,0,.586,0,1.125.084,1.182.814a.981.981,0,0,1-1.059,1.111c-1.255.064-2.516.038-3.774.053C112.54,15.256,112.409,15.287,112.177,15.317Z" fill="#fff"/>
    <path id="Path_88" data-name="Path 88" d="M100.431,21.84V15.079c.946,0,1.832-.059,2.707.012,1.857.152,2.938,1.517,2.875,3.535a3.1,3.1,0,0,1-3.019,3.208C102.181,21.868,101.365,21.84,100.431,21.84Z" fill="#10144b"/>
    <path id="Path_89" data-name="Path 89" d="M90.276,15.023c.842,0,1.62-.02,2.4.005a1.848,1.848,0,0,1,1.859,1.8,1.868,1.868,0,0,1-1.742,1.914c-.808.061-1.624.013-2.513.013Z" fill="#10144b"/>
  </g>
</svg>
