<svg xmlns="http://www.w3.org/2000/svg" width="10.383" height="13.162" viewBox="0 0 10.383 13.162">
  <g id="Group_40" data-name="Group 40" transform="translate(-803.221 -215.743)">
    <path id="Path_10" data-name="Path 10" d="M808.7,229.45l2.96,2.1a.278.278,0,0,1,.065.387l-5.092,7.166-2.555.73a.554.554,0,0,1-.706-.5l-.152-2.653,5.092-7.166a.278.278,0,0,1,.387-.066Z" transform="translate(0 -10.952)" fill="#fff"/>
    <path id="Path_11" data-name="Path 11" d="M837,217.085l-1.6-1.138a1.114,1.114,0,0,0-1.549.262l-.825,1.162a.278.278,0,0,0,.065.387l2.96,2.1a.278.278,0,0,0,.387-.066l.825-1.162A1.113,1.113,0,0,0,837,217.085Z" transform="translate(-23.862)" fill="#fff"/>
  </g>
</svg>
