<?xml version="1.0" encoding="utf-8"?>
<!-- Generator: Adobe Illustrator 22.0.0, SVG Export Plug-In . SVG Version: 6.00 Build 0)  -->
<svg version="1.1" id="Layer_1" xmlns="http://www.w3.org/2000/svg" xmlns:xlink="http://www.w3.org/1999/xlink" x="0px" y="0px"
	 viewBox="0 0 13.2 13.2" style="enable-background:new 0 0 13.2 13.2;" xml:space="preserve">
<g id="Icon_feather-edit-2">
	<path d="M1,13.2c-0.3,0-0.5-0.1-0.7-0.3C0,12.7-0.1,12.3,0,12l0.8-3.1c0-0.2,0.1-0.3,0.3-0.4l7.6-7.6c0,0,0,0,0,0
		c0.5-0.5,1.1-0.7,1.8-0.7c0.7,0,1.3,0.3,1.8,0.8c1,1,1,2.6,0,3.6l-7.6,7.6c-0.1,0.1-0.3,0.2-0.4,0.3l-3.1,0.8
		C1.2,13.2,1.1,13.2,1,13.2z M2.7,9.7l-0.3,1.1l1.1-0.3l7.4-7.4c0.2-0.2,0.2-0.6,0-0.8c-0.1-0.1-0.3-0.2-0.4-0.2
		c-0.1,0-0.3,0.1-0.4,0.2L2.7,9.7z"/>
</g>
</svg>
