<svg id="Layer_1" data-name="Layer 1" xmlns="http://www.w3.org/2000/svg" viewBox="0 0 64 64"><defs></defs><title>msig-ico</title><path id="Union_6" data-name="Union 6" class="cls-1" d="M46.12,64a4.41,4.41,0,0,1-1.4-.22A17.2,17.2,0,0,1,33.3,49.2c-.18-3.07-.18-6.15-.17-9.14V37.91a3.7,3.7,0,0,1,2.47-3.32c3-.93,6.08-1.8,9.21-2.69a4.47,4.47,0,0,1,2.38,0c2.63.76,5.23,1.51,8,2.32l2.17.62.13.05a2.51,2.51,0,0,1,1.82,2.55c-.06,1.35-.09,2.74-.11,4.08a69.51,69.51,0,0,1-.65,9.67c-.94,5.77-4.71,10.12-10.93,12.58a4.06,4.06,0,0,1-1.46.27Zm-.6-29.75c-2.94.84-5.89,1.68-8.82,2.57a1.17,1.17,0,0,0-.65.87c0,3.58,0,7.17.15,10.74.3,5.1,4.47,10.28,9.33,11.86a1.79,1.79,0,0,0,1.12,0c4.74-1.87,8.2-5.16,9-10.24.68-4.25.5-8.63.7-13-3.45-1-6.67-1.95-9.89-2.87a2,2,0,0,0-1,0ZM11,48.48A6.23,6.23,0,1,0,11.18,36H11V32.91a6.23,6.23,0,1,0,.2-12.46H11V17.13a6.23,6.23,0,1,0,.17-12.46H11A4.7,4.7,0,0,1,15.72,0h34.5a5.09,5.09,0,0,1,3.43,1.37,4.5,4.5,0,0,1,1.48,3.3V33.55c-2.56-.74-5.28-1.54-8-2.31A4.2,4.2,0,0,0,46,31.09a5.18,5.18,0,0,0-1.35.19c-3.28.93-6.49,1.84-9.59,2.79a3.83,3.83,0,0,0-2.56,3.46v2.24c0,3.11,0,6.32.17,9.51a15,15,0,0,0,.76,3.87H15.71A4.71,4.71,0,0,1,11,48.48Zm9.43-14a1.55,1.55,0,0,0,0,2.19l0,0L24,40.24a1.56,1.56,0,0,0,2.21,0L32.51,34a1.56,1.56,0,0,0-2.22-2.2l-5.17,5.12-2.46-2.44a1.53,1.53,0,0,0-1.1-.46h0a1.54,1.54,0,0,0-1.1.45Zm0-12.46a1.55,1.55,0,0,0,0,2.19l0,0L24,27.78a1.58,1.58,0,0,0,2.22,0l6.27-6.23a1.55,1.55,0,0,0,0-2.2h0a1.58,1.58,0,0,0-2.22,0l-5.16,5.13L22.66,22a1.53,1.53,0,0,0-1.1-.46h0a1.54,1.54,0,0,0-1.1.45Zm15.67,1.54a1.55,1.55,0,0,0,1.55,1.56h9.43a1.56,1.56,0,0,0,0-3.11H37.67a1.56,1.56,0,0,0-1.56,1.55ZM20.45,9.36a1.54,1.54,0,0,0,0,2.18h0l0,0L24,15.11a1.58,1.58,0,0,0,2.22,0l6.27-6.22a1.55,1.55,0,0,0,0-2.2h0a1.58,1.58,0,0,0-2.22,0l-5.16,5.13L22.66,9.36a1.57,1.57,0,0,0-1.1-.46h0A1.57,1.57,0,0,0,20.45,9.36Zm15.66,1.53a1.57,1.57,0,0,0,1.55,1.57h9.43a1.56,1.56,0,0,0,0-3.12H37.67A1.56,1.56,0,0,0,36.11,10.89Zm10.1,38.94-4.66,2.45.89-5.2-3.78-3.67,5.22-.76,2.33-4.73,2.33,4.73,5.22.76L50,47.08l.9,5.2ZM11,45.36H7.77a3.12,3.12,0,1,1,.1-6.23h3.26a3.12,3.12,0,0,1-.06,6.23Zm0-15.57H7.77a3.11,3.11,0,0,1,.11-6.22h3.25a3.12,3.12,0,0,1-.06,6.23Zm10.54-8.22ZM11,14H7.77a3.12,3.12,0,0,1,.11-6.23h3.25A3.12,3.12,0,0,1,11.07,14Z"/></svg>