<?xml version="1.0" encoding="utf-8"?>
<!-- Generator: Adobe Illustrator 22.0.0, SVG Export Plug-In . SVG Version: 6.00 Build 0)  -->
<svg version="1.1" id="Group_1553" xmlns="http://www.w3.org/2000/svg" xmlns:xlink="http://www.w3.org/1999/xlink" x="0px" y="0px"
	 viewBox="0 0 53.5 57.1" style="enable-background:new 0 0 53.5 57.1;" xml:space="preserve">
<g>
	<path d="M10.1,45.3c0-1.8-1.4-3.4-3.3-3.4c0,0-0.1,0-0.1,0H3.3c-1.8,0-3.4,1.4-3.4,3.3c0,1.8,1.4,3.4,3.3,3.4c0,0,0.1,0,0.1,0h3.3
		C8.5,48.6,10,47.1,10.1,45.3z"/>
	<path d="M0.1,28.6c0,1.8,1.5,3.2,3.3,3.3h3.3c1.8,0,3.3-1.5,3.3-3.4c0-1.8-1.5-3.2-3.3-3.3H3.3C1.5,25.2,0,26.8,0.1,28.6z"/>
	<path d="M3.3,15h3.3c1.8,0,3.3-1.5,3.3-3.4c0-1.8-1.5-3.2-3.3-3.3H3.3c-1.8,0-3.3,1.5-3.3,3.4C0.1,13.5,1.5,15,3.3,15z"/>
	<path d="M48.3,0H11.7c-2.8,0-5,2.2-5,5c3.7,0,6.7,3,6.7,6.7s-3,6.7-6.7,6.7v3.6c3.7,0,6.7,3,6.7,6.7s-3,6.7-6.7,6.7v3.3
		c3.7,0,6.7,3,6.7,6.7c0,3.7-3,6.7-6.7,6.7c0,2.8,2.2,5,5,5h31.9c5.5,0,10-4.5,10-10V5C53.4,2.2,51.1,0,48.3,0z M29.5,36.4
		C29.5,36.4,29.5,36.4,29.5,36.4l-6.7,6.7c-0.7,0.7-1.7,0.7-2.4,0c0,0,0,0,0,0l-3.8-3.8c-0.6-0.7-0.7-1.7,0-2.4
		c0.7-0.7,1.7-0.7,2.4,0c0,0,0,0,0,0l2.6,2.6l5.5-5.5c0.6-0.7,1.7-0.7,2.4,0C30.2,34.7,30.2,35.7,29.5,36.4z M29.5,23
		C29.5,23,29.5,23.1,29.5,23l-6.7,6.7c-0.7,0.7-1.7,0.7-2.4,0c0,0,0,0,0,0l-3.8-3.8c-0.6-0.7-0.7-1.7,0-2.4c0.7-0.7,1.7-0.7,2.4,0
		c0,0,0,0,0,0l2.6,2.6l5.5-5.5c0.6-0.7,1.7-0.7,2.4,0C30.2,21.3,30.2,22.4,29.5,23z M29.6,9.4C29.5,9.5,29.5,9.5,29.6,9.4l-6.7,6.7
		c-0.7,0.7-1.7,0.7-2.4,0c0,0,0,0,0,0l-3.8-3.8c-0.6-0.6-0.7-1.7,0-2.3c0.7-0.7,1.7-0.7,2.4,0c0,0,0,0,0,0l2.6,2.6l5.5-5.5
		c0.6-0.7,1.7-0.7,2.4-0.1S30.2,8.8,29.6,9.4z M35,10h10c0.9,0,1.7,0.7,1.7,1.7c0,0.9-0.8,1.7-1.7,1.7H35c-0.9,0-1.7-0.8-1.7-1.7
		C33.3,10.7,34.1,10,35,10z M35,23.5h10c0.9,0,1.7,0.8,1.7,1.7c0,0.9-0.8,1.7-1.7,1.7H35c-0.9,0-1.7-0.7-1.7-1.7
		C33.3,24.3,34.1,23.5,35,23.5z M45,40.3H35c-0.9,0-1.7-0.8-1.7-1.7c0-0.9,0.8-1.7,1.7-1.7H45c0.8,0,1.4,0.5,1.6,1.2
		c0,0.2,0.1,0.3,0.1,0.5C46.7,39.6,46,40.3,45,40.3z"/>
</g>
</svg>
