<svg id="Layer_1" data-name="Layer 1" xmlns="http://www.w3.org/2000/svg" viewBox="0 0 32 32"><defs></defs><title>msig-ico</title><path id="Path_52" data-name="Path 52" class="cls-1" d="M1.74,10.26,25.1,5l-.32-1.43A.77.77,0,0,0,23.87,3L2,7.89a.76.76,0,0,0-.58.9c.12.49.22,1,.34,1.47ZM1.54,6.6l22.18-5a2,2,0,0,1,2.34,1.49l2.33,10.27H27L26,8.71,2.58,14,4,20.38l.13.57a.42.42,0,0,0,.5.32h0l.18,0v1.36h0a1.64,1.64,0,0,1-1.95-1.24L.05,8.94A2,2,0,0,1,1.53,6.59h0ZM7.3,13.74a2,2,0,0,0-2,2V28.48a2,2,0,0,0,2,2H30a2,2,0,0,0,2-2V15.7a2,2,0,0,0-2-2Zm22.25,5.72V16.85a.29.29,0,0,0-.29-.3H23.44a.3.3,0,0,0-.31.3v2.6a.31.31,0,0,0,.31.31h5.81a.31.31,0,0,0,.31-.31Zm-4.28,7.88A.31.31,0,0,1,25,27v-.61a.3.3,0,0,1,.31-.3h4a.29.29,0,0,1,.3.3V27a.3.3,0,0,1-.3.3Zm-5.56,0a.31.31,0,0,1-.31-.3v-.6a.31.31,0,0,1,.31-.31h4a.31.31,0,0,1,.31.31V27a.31.31,0,0,1-.31.3Zm-5.56,0a.31.31,0,0,1-.3-.3v-.6a.31.31,0,0,1,.3-.31h4a.3.3,0,0,1,.3.31V27a.3.3,0,0,1-.3.3Zm-5.55,0a.3.3,0,0,1-.3-.3v-.6a.3.3,0,0,1,.3-.31h4a.31.31,0,0,1,.3.31V27a.31.31,0,0,1-.3.3Z"/></svg>