<svg xmlns="http://www.w3.org/2000/svg" viewBox="0 0 164.3 63.14"><title>msig-logo</title><g id="Layer_2" data-name="Layer 2"><g id="Layer_1-2" data-name="Layer 1"><path d="M2.77,30.22A122.41,122.41,0,0,1,22.91,10.88a9.61,9.61,0,0,1,12,0A116.6,116.6,0,0,1,45.57,20a113.69,113.69,0,0,1,9.5,10.23c3.06,3.76,3.06,7.75,0,11.52A112.12,112.12,0,0,1,45.56,52a116.35,116.35,0,0,1-10.64,9.11,9.69,9.69,0,0,1-12,0,115.27,115.27,0,0,1-10.65-9.12A113.57,113.57,0,0,1,2.79,41.73a8.67,8.67,0,0,1,0-11.51" fill="#0b004a"/><path d="M.06,36.73a10.89,10.89,0,0,0,2.58,5A118.67,118.67,0,0,0,12.28,52a113.52,113.52,0,0,0,10.65,9.11,10.07,10.07,0,0,0,5,2c-3.54-.86-8.74-6.32-6-16.18,2.62-9.36,6.84-16.22,9-20.42l.06-.13c4.29-8.07-1.76-10.83-6.52-6.78,3.38-4.64,11.08-12.22,13.77-15S39-1,33.69.39C22.74,3.69,9.12,14,2.77,26.1c-2.13,4-3,7.57-2.71,10.63" fill="#f00000"/><polygon points="85.59 44.43 85.54 44.43 80.03 26.9 72.62 26.9 72.62 50.03 77.06 50.03 77.06 31.01 77.13 30.95 83.34 50.03 87.78 50.03 94.02 30.95 94.08 30.95 94.08 50.03 98.52 50.03 98.52 26.9 91.1 26.9 85.59 44.43"/><path d="M112.66,33.36c0-2.51,2-3.2,3.64-3.2a12.06,12.06,0,0,1,4.7,1l.43-3.8a17.24,17.24,0,0,0-5.53-.83c-4.08,0-8.08,1.88-8.08,7.05,0,7.66,10.13,5.84,10.13,10.24,0,2.09-2.34,3-4.1,3a11.06,11.06,0,0,1-5.24-1.42l-.42,4.18a20,20,0,0,0,5.92.9c4.67,0,8.68-1.92,8.68-7,0-7.75-10.13-6.07-10.13-10.08"/><rect x="132.11" y="26.9" width="4.64" height="23.13"/><path d="M155.2,40.7h4.66v5.57a11.91,11.91,0,0,1-2.91.26c-4.46,0-7.7-3.38-7.7-8s3.23-8,7.86-8a9.51,9.51,0,0,1,5.74,1.42l.9.59.37-4.76-.47-.17a17.44,17.44,0,0,0-6.7-1.14c-7.26,0-12.33,4.93-12.33,12,0,7.28,4.94,12.16,12.3,12.16a21.19,21.19,0,0,0,7-1l.42-.15V36.83h-9.1Z"/></g></g></svg>