<svg xmlns="http://www.w3.org/2000/svg" width="15" height="14.966" viewBox="0 0 15 14.966">
  <g id="call-answer" transform="translate(0 -0.394)">
    <g id="Group_568" data-name="Group 568" transform="translate(0 0.394)">
      <g id="Group_567" data-name="Group 567">
        <path id="Path_341" data-name="Path 341" d="M14.663,12.231,12.347,9.914a1.208,1.208,0,0,0-1.7.032L9.477,11.113l-.23-.128a11.614,11.614,0,0,1-2.807-2.03A11.679,11.679,0,0,1,4.4,6.143c-.043-.078-.085-.153-.126-.225l.783-.782.385-.386a1.207,1.207,0,0,0,.031-1.7L3.162.73a1.207,1.207,0,0,0-1.7.032l-.653.657.018.018a3.775,3.775,0,0,0-.538.949,3.934,3.934,0,0,0-.239.963c-.306,2.536.853,4.853,4,8,4.347,4.347,7.85,4.018,8,4a3.914,3.914,0,0,0,.965-.242,3.763,3.763,0,0,0,.946-.536l.014.013.661-.648A1.209,1.209,0,0,0,14.663,12.231Z" transform="translate(0 -0.394)" fill="#fff"/>
      </g>
    </g>
  </g>
</svg>
