<?xml version="1.0" encoding="utf-8"?>
<!-- Generator: Adobe Illustrator 22.0.0, SVG Export Plug-In . SVG Version: 6.00 Build 0)  -->
<svg version="1.1" id="Layer_1" xmlns="http://www.w3.org/2000/svg" xmlns:xlink="http://www.w3.org/1999/xlink" x="0px" y="0px"
	 viewBox="0 0 20.9 20.8" style="enable-background:new 0 0 20.9 20.8;" xml:space="preserve">
<g>
	<path d="M20.2,18.6l-5.5-5.4c-0.4-0.4-1-0.4-1.4,0s-0.4,1,0,1.4l5.5,5.4c0.2,0.2,0.4,0.3,0.7,0.3c0.3,0,0.5-0.1,0.7-0.3
		C20.6,19.6,20.6,19,20.2,18.6z"/>
	<path d="M7.2,0C3.2,0,0,3.2,0,7.2s3.2,7.2,7.2,7.2s7.2-3.2,7.2-7.2S11.1,0,7.2,0z M7.2,12.3C4.3,12.3,2,10,2,7.2S4.3,2,7.2,2
		s5.2,2.3,5.2,5.2S10,12.3,7.2,12.3z"/>
</g>
</svg>
