<?xml version="1.0" encoding="utf-8"?>
<!-- Generator: Adobe Illustrator 22.0.0, SVG Export Plug-In . SVG Version: 6.00 Build 0)  -->
<svg version="1.1" id="surface1" xmlns="http://www.w3.org/2000/svg" xmlns:xlink="http://www.w3.org/1999/xlink" x="0px" y="0px"
	 viewBox="0 0 61.6 72" style="enable-background:new 0 0 61.6 72;" xml:space="preserve">
<path id="Path_4607" d="M30.8,22.2C23.2,22.2,17,28.4,17,36s6.2,13.8,13.8,13.8S44.6,43.6,44.6,36v0C44.6,28.4,38.4,22.2,30.8,22.2z
	 M39,33.4l-9.9,9.9c-0.8,0.8-2.2,0.8-3,0l-3.8-3.8c-0.9-0.8-0.9-2.1-0.2-3s2.1-0.9,3-0.2c0.1,0,0.1,0.1,0.2,0.2l2.3,2.3l8.4-8.4
	c0.8-0.9,2.1-0.9,3-0.2s0.9,2.1,0.2,3C39.1,33.3,39.1,33.4,39,33.4L39,33.4z"/>
<path id="Path_4608" d="M61.6,19.5L61.6,19.5c0-0.7-0.1-1.5-0.1-2.3c-0.1-4-3.2-7.3-7.2-7.5C46,9.3,39.5,6.6,34,1.3l0,0
	c-1.8-1.6-4.5-1.6-6.3,0l0,0c-5.5,5.3-11.9,8-20.3,8.5c-4,0.2-7.1,3.5-7.2,7.5c0,0.8,0,1.5-0.1,2.2v0.1c-0.2,8.4-0.4,18.9,3.2,28.5
	c1.9,5.1,4.8,9.7,8.7,13.5c4.9,4.6,10.7,8,17.1,10.1c0.2,0.1,0.5,0.1,0.7,0.2c0.7,0.1,1.4,0.1,2,0c0.2,0,0.5-0.1,0.7-0.2
	c6.4-2.1,12.2-5.5,17.1-10.1c3.9-3.8,6.9-8.4,8.7-13.6C61.9,38.5,61.7,28,61.6,19.5z M30.8,53.9c-9.9-0.1-17.9-8.1-17.8-18
	S21.1,18,31,18.1c9.9,0.1,17.8,8.1,17.8,17.9C48.8,45.9,40.8,54,30.8,53.9z"/>
</svg>
